<svg xmlns="http://www.w3.org/2000/svg"
    viewBox="0 0 256 256"
    xml:space="preserve">
    <circle 
        cx="128" 
        cy="128" 
        r="128" 
        fill="#f0f0f0" />
    <path d="M26.46 50.071c-10.055 13.082-17.636 28.159-22.051 44.539h66.589zm225.131 44.539c-4.415-16.379-11.997-31.456-22.051-44.538l-44.538 44.538zM4.41 161.392c4.415 16.379 11.997 31.456 22.051 44.538l44.537-44.538zM205.929 26.461c-13.082-10.055-28.159-17.636-44.539-22.051v66.589zM50.071 229.54c13.082 10.055 28.159 17.636 44.539 22.051V163.002zm44.538-225.13c-16.379 4.415-31.456 11.997-44.538 22.051l44.538 44.538zm66.783 247.181c16.379-4.415 31.456-11.997 44.538-22.051l-44.538-44.538zm23.611-90.199 44.538 44.538c10.054-13.081 17.636-28.159 22.051-44.538z" 
        data-original="#0052b4" 
        fill="#0052b4"/>
    <g fill="#d80027">
        <path d="M254.917 111.305H144.696V1.084A129.5 129.5 0 0 0 128 0c-5.66 0-11.231.372-16.696 1.084v110.221H1.084A129.5 129.5 0 0 0 0 128c0 5.66.372 11.231 1.084 16.696h110.221v110.221a129.2 129.2 0 0 0 33.392 0V144.696h110.221A129.5 129.5 0 0 0 256 128c0-5.659-.372-11.231-1.084-16.696" 
            data-original="#d80027"/>
        <path d="M161.392 161.392 218.51 218.51a128.5 128.5 0 0 0 7.524-8.218l-48.901-48.901h-15.741zm-66.783 0h-.001L37.49 218.51a128.5 128.5 0 0 0 8.218 7.524l48.901-48.902zm0-66.783v-.001L37.491 37.49a128.5 128.5 0 0 0-7.524 8.218l48.902 48.902zm66.783 0L218.51 37.491a128 128 0 0 0-8.218-7.524l-48.901 48.902z" 
            data-original="#d80027"/>
    </g>
</svg>